<svg xmlns="http://www.w3.org/2000/svg" xmlns:xlink="http://www.w3.org/1999/xlink" id="Layer_1" x="0" y="0" version="1.1" viewBox="0 0 551.034 551.034" style="enable-background:new 0 0 551.034 551.034" xml:space="preserve"><g id="XMLID_13_"><linearGradient id="XMLID_2_" x1="275.517" x2="275.517" y1="4.571" y2="549.72" gradientTransform="matrix(1 0 0 -1 0 554)" gradientUnits="userSpaceOnUse"><stop offset="0" style="stop-color:#e09b3d"/><stop offset=".3" style="stop-color:#c74c4d"/><stop offset=".6" style="stop-color:#c21975"/><stop offset="1" style="stop-color:#7024c4"/></linearGradient><path id="XMLID_17_" style="fill:url(#XMLID_2_)" d="M386.878,0H164.156C73.64,0,0,73.64,0,164.156v222.722 c0,90.516,73.64,164.156,164.156,164.156h222.722c90.516,0,164.156-73.64,164.156-164.156V164.156 C551.033,73.64,477.393,0,386.878,0z M495.6,386.878c0,60.045-48.677,108.722-108.722,108.722H164.156 c-60.045,0-108.722-48.677-108.722-108.722V164.156c0-60.046,48.677-108.722,108.722-108.722h222.722 c60.045,0,108.722,48.676,108.722,108.722L495.6,386.878L495.6,386.878z"/><linearGradient id="XMLID_3_" x1="275.517" x2="275.517" y1="4.571" y2="549.72" gradientTransform="matrix(1 0 0 -1 0 554)" gradientUnits="userSpaceOnUse"><stop offset="0" style="stop-color:#e09b3d"/><stop offset=".3" style="stop-color:#c74c4d"/><stop offset=".6" style="stop-color:#c21975"/><stop offset="1" style="stop-color:#7024c4"/></linearGradient><path id="XMLID_81_" style="fill:url(#XMLID_3_)" d="M275.517,133C196.933,133,133,196.933,133,275.516 s63.933,142.517,142.517,142.517S418.034,354.1,418.034,275.516S354.101,133,275.517,133z M275.517,362.6 c-48.095,0-87.083-38.988-87.083-87.083s38.989-87.083,87.083-87.083c48.095,0,87.083,38.988,87.083,87.083 C362.6,323.611,323.611,362.6,275.517,362.6z"/><linearGradient id="XMLID_4_" x1="418.306" x2="418.306" y1="4.571" y2="549.72" gradientTransform="matrix(1 0 0 -1 0 554)" gradientUnits="userSpaceOnUse"><stop offset="0" style="stop-color:#e09b3d"/><stop offset=".3" style="stop-color:#c74c4d"/><stop offset=".6" style="stop-color:#c21975"/><stop offset="1" style="stop-color:#7024c4"/></linearGradient><circle id="XMLID_83_" style="fill:url(#XMLID_4_)" cx="418.306" cy="134.072" r="34.149"/></g></svg>